<svg width="175" height="35" viewBox="0 0 175 35" fill="none" xmlns="http://www.w3.org/2000/svg">
<path d="M1.67048e-05 17.3219C0.00207923 19.7886 0.514298 22.2277 1.50379 24.4824C2.49328 26.7372 3.93818 28.7579 5.74572 30.4148C7.55326 32.0716 9.68351 33.328 11.9997 34.1033C14.3159 34.8786 16.7668 35.1557 19.1952 34.9168C21.6236 34.6778 23.9757 33.9281 26.1005 32.7158C28.2254 31.5035 30.076 29.8554 31.5336 27.8772C32.9913 25.8991 34.0237 23.6347 34.5645 21.2293C35.1054 18.8239 35.1429 16.3308 34.6744 13.9099C34.6823 14.1108 34.6857 14.3129 34.6857 14.5149C34.6852 17.1059 34.0838 19.6607 32.9295 21.974C31.7753 24.2873 30.1005 26.2947 28.0396 27.8348C25.9788 29.3749 23.5894 30.4049 21.0634 30.8419C18.5374 31.279 15.9452 31.1109 13.4951 30.3513C11.045 29.5917 8.80526 28.2616 6.95586 26.468C5.10646 24.6743 3.69894 22.4671 2.84638 20.0237C1.99382 17.5803 1.71999 14.9688 2.04689 12.399C2.37379 9.82912 3.29231 7.37263 4.72865 5.22684C1.6853 8.50181 -0.00613194 12.8282 1.67048e-05 17.3219Z" fill="white"/>
<path d="M5.41681 17.8212C6.11032 20.2024 7.42266 22.3521 9.21713 24.0462C11.0116 25.7404 13.2226 26.9171 15.6197 27.4538C18.0168 27.9905 20.5124 27.8675 22.8466 27.0977C25.1808 26.3279 27.2681 24.9394 28.8911 23.0768C30.5141 21.2142 31.6134 18.9457 32.0746 16.5076C32.5358 14.0695 32.342 11.551 31.5133 9.21436C30.6845 6.87773 29.2513 4.80851 27.3628 3.22222C25.4744 1.63592 23.1997 0.590601 20.7759 0.195129C22.775 0.848315 24.582 1.99405 26.0341 3.52912C27.4862 5.0642 28.5378 6.94039 29.0942 8.98867C29.6505 11.037 29.6941 13.193 29.2211 15.2626C28.748 17.3321 27.7732 19.2502 26.3844 20.844C24.9956 22.4379 23.2364 23.6573 21.2653 24.3926C19.2943 25.1279 17.1733 25.3559 15.0934 25.056C13.0135 24.7562 11.04 23.9379 9.35081 22.6749C7.66159 21.412 6.30966 19.744 5.41681 17.8212Z" fill="white"/>
<path d="M5.00001 10.6615C5.00008 13.0201 5.77366 15.3122 7.19965 17.1789C8.62564 19.0456 10.6236 20.3816 12.8807 20.9778C15.1378 21.574 17.5268 21.3967 19.6737 20.4738C21.8205 19.5508 23.6041 17.9342 24.7453 15.877C23.7088 17.3468 22.289 18.4968 20.6441 19.1988C18.9991 19.9007 17.1937 20.1271 15.429 19.8526C13.6643 19.5781 12.0097 18.8135 10.6495 17.6442C9.28934 16.4748 8.27707 14.9465 7.72552 13.2296C7.17396 11.5128 7.10479 9.67478 7.52572 7.9205C7.94664 6.16623 8.84113 4.5646 10.1095 3.2941C11.3778 2.0236 12.9702 1.13415 14.7092 0.72488C16.4481 0.31561 18.2653 0.402596 19.9583 0.976146C18.3513 0.228738 16.5843 -0.0981504 14.8197 0.0255468C13.0551 0.149244 11.3496 0.719555 9.86003 1.68403C8.37047 2.6485 7.1447 3.97616 6.29544 5.54491C5.44618 7.11365 5.00072 8.87312 5.00001 10.6615Z" fill="white"/>
<path d="M53.1 21.202H56.614V22H52.12V12.214H53.1V21.202ZM58.9506 12.214V18.374C58.9506 19.3447 59.1792 20.0633 59.6366 20.53C60.1032 20.9967 60.7379 21.23 61.5406 21.23C62.3432 21.23 62.9686 21.0013 63.4166 20.544C63.8739 20.0773 64.1026 19.354 64.1026 18.374V12.214H65.0826V18.36C65.0826 19.6013 64.7512 20.5347 64.0886 21.16C63.4352 21.7853 62.5812 22.098 61.5266 22.098C60.4719 22.098 59.6132 21.7853 58.9506 21.16C58.2972 20.5347 57.9706 19.6013 57.9706 18.36V12.214H58.9506ZM74.6464 22H73.6664L68.2484 13.768V22H67.2684V12.214H68.2484L73.6664 20.432V12.214H74.6464V22ZM82.5361 19.676H78.0841L77.2301 22H76.1941L79.7641 12.34H80.8701L84.4261 22H83.3901L82.5361 19.676ZM82.2421 18.864L80.3101 13.572L78.3781 18.864H82.2421ZM91.2069 22L88.7849 17.912H86.9789V22H85.9989V12.214H88.9389C90.0309 12.214 90.8569 12.4753 91.4169 12.998C91.9862 13.5207 92.2709 14.2067 92.2709 15.056C92.2709 15.7653 92.0656 16.372 91.6549 16.876C91.2536 17.3707 90.6562 17.6927 89.8629 17.842L92.3829 22H91.2069ZM86.9789 17.114H88.9529C89.7182 17.114 90.2922 16.9273 90.6749 16.554C91.0669 16.1807 91.2629 15.6813 91.2629 15.056C91.2629 14.412 91.0762 13.9173 90.7029 13.572C90.3296 13.2173 89.7416 13.04 88.9389 13.04H86.9789V17.114ZM101.252 22.098C100.533 22.098 99.8895 21.9813 99.3201 21.748C98.7508 21.5147 98.2935 21.1693 97.9481 20.712C97.6121 20.2547 97.4348 19.704 97.4161 19.06H99.9641C100.001 19.424 100.127 19.704 100.342 19.9C100.557 20.0867 100.837 20.18 101.182 20.18C101.537 20.18 101.817 20.1007 102.022 19.942C102.227 19.774 102.33 19.5453 102.33 19.256C102.33 19.0133 102.246 18.8127 102.078 18.654C101.919 18.4953 101.719 18.3647 101.476 18.262C101.243 18.1593 100.907 18.0427 100.468 17.912C99.8335 17.716 99.3155 17.52 98.9141 17.324C98.5128 17.128 98.1675 16.8387 97.8781 16.456C97.5888 16.0733 97.4441 15.574 97.4441 14.958C97.4441 14.0433 97.7755 13.3293 98.4381 12.816C99.1008 12.2933 99.9641 12.032 101.028 12.032C102.111 12.032 102.983 12.2933 103.646 12.816C104.309 13.3293 104.663 14.048 104.71 14.972H102.12C102.101 14.6547 101.985 14.4073 101.77 14.23C101.555 14.0433 101.28 13.95 100.944 13.95C100.655 13.95 100.421 14.0293 100.244 14.188C100.067 14.3373 99.9781 14.5567 99.9781 14.846C99.9781 15.1633 100.127 15.4107 100.426 15.588C100.725 15.7653 101.191 15.9567 101.826 16.162C102.461 16.3767 102.974 16.582 103.366 16.778C103.767 16.974 104.113 17.2587 104.402 17.632C104.691 18.0053 104.836 18.486 104.836 19.074C104.836 19.634 104.691 20.1427 104.402 20.6C104.122 21.0573 103.711 21.4213 103.17 21.692C102.629 21.9627 101.989 22.098 101.252 22.098ZM110.957 22.098C110.033 22.098 109.184 21.8833 108.409 21.454C107.644 21.0247 107.033 20.4273 106.575 19.662C106.127 18.8873 105.903 18.0193 105.903 17.058C105.903 16.0967 106.127 15.2333 106.575 14.468C107.033 13.7027 107.644 13.1053 108.409 12.676C109.184 12.2467 110.033 12.032 110.957 12.032C111.881 12.032 112.726 12.2467 113.491 12.676C114.266 13.1053 114.873 13.7027 115.311 14.468C115.759 15.2333 115.983 16.0967 115.983 17.058C115.983 18.0193 115.759 18.8873 115.311 19.662C114.863 20.4273 114.257 21.0247 113.491 21.454C112.726 21.8833 111.881 22.098 110.957 22.098ZM110.957 19.914C111.741 19.914 112.367 19.6527 112.833 19.13C113.309 18.6073 113.547 17.9167 113.547 17.058C113.547 16.19 113.309 15.4993 112.833 14.986C112.367 14.4633 111.741 14.202 110.957 14.202C110.164 14.202 109.529 14.4587 109.053 14.972C108.587 15.4853 108.353 16.1807 108.353 17.058C108.353 17.926 108.587 18.6213 109.053 19.144C109.529 19.6573 110.164 19.914 110.957 19.914ZM123.713 12.172V14.09H119.709V16.162H122.705V18.024H119.709V22H117.315V12.172H123.713ZM132.042 12.172V14.09H129.438V22H127.044V14.09H124.44V12.172H132.042ZM146.767 12.172L144.205 22H141.307L139.739 15.532L138.115 22H135.217L132.725 12.172H135.287L136.701 19.326L138.451 12.172H141.083L142.763 19.326L144.191 12.172H146.767ZM154.086 20.264H150.418L149.83 22H147.324L150.88 12.172H153.652L157.208 22H154.674L154.086 20.264ZM153.47 18.416L152.252 14.818L151.048 18.416H153.47ZM163.302 22L161.258 18.29H160.684V22H158.29V12.172H162.308C163.083 12.172 163.741 12.3073 164.282 12.578C164.833 12.8487 165.243 13.222 165.514 13.698C165.785 14.1647 165.92 14.6873 165.92 15.266C165.92 15.9193 165.733 16.5027 165.36 17.016C164.996 17.5293 164.455 17.8933 163.736 18.108L166.004 22H163.302ZM160.684 16.596H162.168C162.607 16.596 162.933 16.4887 163.148 16.274C163.372 16.0593 163.484 15.756 163.484 15.364C163.484 14.9907 163.372 14.6967 163.148 14.482C162.933 14.2673 162.607 14.16 162.168 14.16H160.684V16.596ZM169.817 14.09V16.078H173.023V17.926H169.817V20.082H173.443V22H167.423V12.172H173.443V14.09H169.817Z" fill="white"/>
</svg>
